<?xml version="1.0" encoding="utf-8"?>
<!-- Generator: Adobe Illustrator 19.0.1, SVG Export Plug-In . SVG Version: 6.00 Build 0)  -->
<svg version="1.1"
	 id="svg8" sodipodi:docname="Singapore_road_sign_-_Mandatory_-_Stop.svg" inkscape:version="0.92.2 (5c3e80d, 2017-08-06)" xmlns:dc="http://purl.org/dc/elements/1.1/" xmlns:cc="http://creativecommons.org/ns#" xmlns:sodipodi="http://sodipodi.sourceforge.net/DTD/sodipodi-0.dtd" xmlns:inkscape="http://www.inkscape.org/namespaces/inkscape" xmlns:rdf="http://www.w3.org/1999/02/22-rdf-syntax-ns#" xmlns:svg="http://www.w3.org/2000/svg"
	 xmlns="http://www.w3.org/2000/svg" xmlns:xlink="http://www.w3.org/1999/xlink" x="0px" y="0px" viewBox="1161.9 146.1 500 500"
	 style="enable-background:new 1161.9 146.1 500 500;" xml:space="preserve">
<style type="text/css">
	.st0{fill:#DC0000;}
	.st1{fill:#FFFFFF;}
</style>
<g>
	<g id="use13">
		<path inkscape:connector-curvature="0" class="st0" d="M1509.9,159.6l138.5,138.5l0,195.9l-138.5,138.5h-195.9l-138.5-138.5V298.1
			l138.5-138.5L1509.9,159.6z"/>
	</g>
	<g id="layer1" transform="translate(-20.000031,329.00017)" inkscape:label="Layer 1" inkscape:groupmode="layer">
		<g id="path872">
			<path inkscape:connector-curvature="0" sodipodi:nodetypes="ccccccccc" class="st1" d="M1412.6,18.8h-19.3v116h-19.3v-116h-19.3
				V-0.6h58V18.8z"/>
		</g>
		<g id="rect903">
			<path inkscape:connector-curvature="0" class="st1" d="M1460.9-0.6c-16.1,0-29,12.9-29,29v77.3c0,16.1,12.9,29,29,29h19.3
				c16.1,0,29-12.9,29-29V28.4c0-16.1-12.9-29-29-29H1460.9z M1460.9,18.8h19.3c5.4,0,9.7,4.3,9.7,9.7v77.3c0,5.4-4.3,9.7-9.7,9.7
				h-19.3c-5.4,0-9.7-4.3-9.7-9.7V28.4C1451.2,23.1,1455.5,18.8,1460.9,18.8z"/>
		</g>
		<g id="rect824">
			<path inkscape:connector-curvature="0" sodipodi:nodetypes="cccssssccccsssscc" class="st1" d="M1528.6,134.8h19.3V86.4h19.3
				c16.1,0,29-12.9,29-29v-29c0-16.1-12.9-29-29-29h-19.3h-19.3V134.8z M1547.9,18.8h19.3c5.4,0,9.7,4.3,9.7,9.7v29
				c0,5.4-4.3,9.7-9.7,9.7h-19.3V18.8z"/>
		</g>
		<g id="rect860">
			<path inkscape:connector-curvature="0" sodipodi:nodetypes="ssccccssssccssssccccssssccsss" class="st1" d="M1296.6-0.6
				c-16.1,0-29,12.9-29,29v5.2c0,8.8,4,17.2,10.9,22.7l33.7,26.8c2.3,1.8,3.6,4.6,3.6,7.6v15.1c0.3,5.3-4.3,9.7-9.7,9.7h-9.7
				c-5.4,0-9.7-4.3-9.7-9.7v-9.7h-19.3v9.7c0,16.1,12.9,29,29,29h9.7c16.1,0,29-12.9,29-29V90.7c0-8.8-4-17.2-10.9-22.7l-33.7-26.8
				c-2.3-1.8-3.6-4.6-3.6-7.6l0-5.2c0-5.4,4.3-9.7,9.7-9.7h9.7c5.4,0,9.7,4.3,9.7,9.7v9.7h19.3v-9.7c0-16.1-12.9-29-29-29H1296.6z"
				/>
		</g>
	</g>
	<g id="use13_1_">
		<path class="st1" d="M1504.5,619.6h-185.2l-130.9-130.9V303.5l130.9-130.9h185.2l130.9,130.9v185.2L1504.5,619.6z M1320.6,616.6
			h182.7l129.2-129.2V304.8l-129.2-129.2h-182.7l-129.2,129.2v182.7L1320.6,616.6z"/>
	</g>
</g>
</svg>
