<svg xmlns="http://www.w3.org/2000/svg" viewBox="0 0 462.19 167.2"><defs><style>.cls-1{isolation:isolate;}.cls-2{fill:#231f20;}.cls-3{fill:#293982;mix-blend-mode:multiply;opacity:0.3;}.cls-10,.cls-11,.cls-13,.cls-14,.cls-15,.cls-16,.cls-17,.cls-18,.cls-19,.cls-20,.cls-21,.cls-22,.cls-3,.cls-4,.cls-5,.cls-6,.cls-7,.cls-8,.cls-9{fill-rule:evenodd;}.cls-4{fill:#bbb9bb;}.cls-5{fill:#1e1f1b;}.cls-6{fill:#eae9e9;}.cls-7{fill:#393937;}.cls-8{fill:#1d1d1a;}.cls-9{fill:#7e7b7e;}.cls-10{fill:#b8b6b7;}.cls-11,.cls-12{fill:#8c8c8c;}.cls-13{fill:#393936;}.cls-14{fill:#7cc1ea;}.cls-15{fill:#3e3e3d;}.cls-16{fill:#fff;}.cls-17{fill:#435aa8;}.cls-18{fill:#cdb281;}.cls-19{fill:#b09672;}.cls-20{fill:#f1d8a9;}.cls-21{fill:#c1a179;}.cls-22{fill:#98754d;}</style></defs><g class="cls-1"><g id="Layer_1" data-name="Layer 1"><path class="cls-2" d="M346.18,271.7V228.48h6.33V271.7Zm0,0v-5.78h28.61v5.78Z" transform="translate(-170.52 -214.16)"/><path class="cls-2" d="M379.2,271.7l12.48-43.22h8.82L413,271.7h-6.39l-10.23-38h-.54l-10.23,38ZM385,261.17v-5.79h21.91v5.79Z" transform="translate(-170.52 -214.16)"/><path class="cls-2" d="M431.12,272.31a37.53,37.53,0,0,1-6.89-.6,27.15,27.15,0,0,1-6-1.78l.79-6.15a40.08,40.08,0,0,0,6.47,2.18,25.85,25.85,0,0,0,6.07.75q4.26,0,6.33-1.5a5.2,5.2,0,0,0,2.07-4.53c0-2.58-1.32-4.46-4-5.66l-7.49-3.41a18.7,18.7,0,0,1-6.77-4.84,10.63,10.63,0,0,1-2.36-7q0-5.66,3.41-8.76t9.65-3.11a21.54,21.54,0,0,1,7.7,1.28,19.93,19.93,0,0,1,6.45,4.17l-4.26,4.32a21.23,21.23,0,0,0-5-3.18,12.27,12.27,0,0,0-4.85-1,7.08,7.08,0,0,0-4.85,1.51,5.59,5.59,0,0,0-1.72,4.46,5.09,5.09,0,0,0,1.12,3.42,9.8,9.8,0,0,0,3.32,2.36l6.33,3a22.18,22.18,0,0,1,7.3,5.08,10.59,10.59,0,0,1,2.5,7.28q0,5.87-3.82,8.81T431.12,272.31Z" transform="translate(-170.52 -214.16)"/><path class="cls-2" d="M453.31,234.26v-5.78H485v5.78ZM466,271.7V228.48h6.33V271.7Z" transform="translate(-170.52 -214.16)"/><path class="cls-2" d="M491.29,271.7V228.48h6.08V271.7Zm11.56-17.65-4.68-17.9H496.4v-7.67h4.32l4.69,18.57h.24l.61,7Zm1.77,0,.91-7h.37l4.68-18.57h4.32v7.67h-1.76l-4.69,17.9Zm9.31,17.65V228.48H520V271.7Z" transform="translate(-170.52 -214.16)"/><path class="cls-2" d="M529,234.26v-5.78h26.29v5.78Zm0,37.44v-5.78h26.29v5.78Zm10,0V228.48h6.33V271.7Z" transform="translate(-170.52 -214.16)"/><path class="cls-2" d="M565.3,271.7V228.48h6.33V271.7Zm0,0v-5.78h28.61v5.78Z" transform="translate(-170.52 -214.16)"/><path class="cls-2" d="M601.82,271.7V228.48h6.33V271.7Zm0-37.44v-5.78h28.61v5.78Zm0,18.69v-5.78H625V253Zm0,18.75v-5.78h28.61v5.78Z" transform="translate(-170.52 -214.16)"/><path class="cls-2" d="M345.57,346.49V303.28h6.33v43.21Zm5.9,0v-5.78H356q6.66,0,10-3.8t3.36-11.42q0-8.25-3.36-12.34t-10-4.09H351.6l-.74-5.78H356q19.79,0,19.78,22.21,0,21-19.78,21Z" transform="translate(-170.52 -214.16)"/><path class="cls-2" d="M382.7,346.49V303.28H389v43.21Zm0-37.43v-5.78h28.61v5.78Zm0,18.69V322h23.13v5.79Zm0,18.74v-5.78h28.61v5.78Z" transform="translate(-170.52 -214.16)"/><path class="cls-2" d="M419.22,346.49V303.28h6.33v43.21Zm0,0v-5.78h28.61v5.78Z" transform="translate(-170.52 -214.16)"/><path class="cls-2" d="M456,309.06v-5.78h26.3v5.78Zm0,37.43v-5.78h26.3v5.78Zm10,0V303.28h6.33v43.21Z" transform="translate(-170.52 -214.16)"/><path class="cls-2" d="M500.93,346.49l-12.17-43.21h6.51l10.11,38h.55l10.1-38h6.51l-12.17,43.21Z" transform="translate(-170.52 -214.16)"/><path class="cls-2" d="M528.78,346.49V303.28h6.33v43.21Zm0-37.43v-5.78h28.61v5.78Zm0,18.69V322h23.13v5.79Zm0,18.74v-5.78h28.61v5.78Z" transform="translate(-170.52 -214.16)"/><path class="cls-2" d="M564.69,346.49V303.28H571v43.21Zm5.91-16.43v-5.78h8.95a7.87,7.87,0,0,0,5.64-1.92,7.08,7.08,0,0,0,2-5.39,8,8,0,0,0-2-5.86,7.56,7.56,0,0,0-5.64-2.05h-8.83l-.73-5.78h9.56q6.72,0,10.39,3.4t3.67,9.68q0,6.51-3.67,10.11t-10.39,3.59Zm17.28,16.43-9.67-20.33h6.69l10.29,20.33Z" transform="translate(-170.52 -214.16)"/><path class="cls-2" d="M612.63,332.07l-14.92-28.79h6.7l10.53,21.6h.55L626,303.28h6.69L617.8,332.07Zm-.58,14.42v-21.3h6.33v21.3Z" transform="translate(-170.52 -214.16)"/><path class="cls-3" d="M170.52,322.2l102.26,59.16C304.18,377,330,362.92,333.51,346l-98-59.26a3.67,3.67,0,0,0-3.81,0Z" transform="translate(-170.52 -214.16)"/><path class="cls-4" d="M269.1,327.25l56.31-25.7L224.6,243.25c-2.71-1.57-1.25.95-3.58,3.29l-33.53,33.67Z" transform="translate(-170.52 -214.16)"/><path class="cls-5" d="M176.09,273.7l11.4,6.45c30.79-2.84,47.3-12.76,50.39-29.12v-4.17Z" transform="translate(-170.52 -214.16)"/><path class="cls-6" d="M265,355.84l2.94,4.91,13-7.37c2-1.11-1-6.14-2.89-4.95Z" transform="translate(-170.52 -214.16)"/><path class="cls-7" d="M254.72,348l15.08,25.18,10-5.64c10.07-5.69-5-31.41-14.82-25.34Z" transform="translate(-170.52 -214.16)"/><path class="cls-8" d="M262.06,348.69C267.82,352,272.5,360,272.5,366.64s-4.68,9.35-10.44,6.06-10.44-11.32-10.44-17.95S256.29,345.41,262.06,348.69Z" transform="translate(-170.52 -214.16)"/><path class="cls-9" d="M262.06,351.37c4.48,2.55,8.11,8.8,8.11,13.95s-3.63,7.26-8.11,4.71-8.11-8.8-8.11-13.95S257.58,348.82,262.06,351.37Z" transform="translate(-170.52 -214.16)"/><path class="cls-10" d="M262.06,352.51a15.56,15.56,0,0,1,7.12,12.24c0,4.53-3.19,6.38-7.12,4.14a15.57,15.57,0,0,1-7.12-12.25C254.94,352.12,258.13,350.27,262.06,352.51Z" transform="translate(-170.52 -214.16)"/><path class="cls-6" d="M262.07,353.68a13.27,13.27,0,0,1,6.09,10.46,4.91,4.91,0,0,1-1.07,3.36,6.62,6.62,0,0,0,.28-2A13.81,13.81,0,0,0,261,354.64a4.65,4.65,0,0,0-4.15-.57C258,352.67,259.88,352.43,262.07,353.68Z" transform="translate(-170.52 -214.16)"/><polygon class="cls-8" points="74.72 122.05 79.91 135.28 96.69 125.58 74.72 122.05"/><path class="cls-6" d="M187.06,311l2.95,4.92,13-7.38c2-1.11-1-6.13-2.9-4.95Z" transform="translate(-170.52 -214.16)"/><path class="cls-7" d="M176.83,303.12l15.08,25.18,10-5.64c10.06-5.7-5-31.41-14.83-25.35Z" transform="translate(-170.52 -214.16)"/><path class="cls-8" d="M184.17,303.83c5.77,3.28,10.44,11.32,10.44,17.95s-4.67,9.34-10.44,6.06-10.43-11.32-10.43-18S178.41,300.54,184.17,303.83Z" transform="translate(-170.52 -214.16)"/><path class="cls-9" d="M184.17,306.5c4.48,2.55,8.11,8.8,8.11,13.95s-3.63,7.26-8.11,4.71-8.11-8.8-8.11-14S179.69,304,184.17,306.5Z" transform="translate(-170.52 -214.16)"/><path class="cls-10" d="M184.17,307.64a15.56,15.56,0,0,1,7.13,12.25c0,4.52-3.19,6.37-7.13,4.13a15.57,15.57,0,0,1-7.12-12.25C177.05,307.25,180.24,305.4,184.17,307.64Z" transform="translate(-170.52 -214.16)"/><path class="cls-6" d="M184.19,308.81a13.32,13.32,0,0,1,6.09,10.47,4.9,4.9,0,0,1-1.08,3.36,6.69,6.69,0,0,0,.28-2,13.81,13.81,0,0,0-6.32-10.87,4.68,4.68,0,0,0-4.16-.58C180.07,307.8,182,307.56,184.19,308.81Z" transform="translate(-170.52 -214.16)"/><path class="cls-11" d="M280.5,353.7V333.84l-100.82-58.3c-2.71-1.57-3.57,0-3.57,3.29V293Z" transform="translate(-170.52 -214.16)"/><path class="cls-5" d="M280.48,353.67V327.55l50.35-29.12.09,25.82C328.26,341.16,311.09,351.56,280.48,353.67Z" transform="translate(-170.52 -214.16)"/><path class="cls-11" d="M192.09,302.09c5.44,4.34,7.56,11.91,8,18.22l50.28,29.18c3.08-3.48,6.38-6.93,14.07-5.53C251,336.21,205.54,309.84,192.09,302.09Z" transform="translate(-170.52 -214.16)"/><rect class="cls-12" x="5.57" y="55.37" width="11.39" height="21.37"/><path class="cls-13" d="M176.09,269.53l11.4,6.44c30.79-2.83,47.3-12.75,50.39-29.11l-11.11-6.66Z" transform="translate(-170.52 -214.16)"/><rect class="cls-12" x="98.58" y="106.94" width="11.4" height="24.44"/><path class="cls-13" d="M269.1,321.11l11.4,6.44c30.79-2.84,47.3-12.76,50.39-29.12l-11.11-6.65Z" transform="translate(-170.52 -214.16)"/><path class="cls-14" d="M240.87,330.32V344l-31.08-18,0-13.6Z" transform="translate(-170.52 -214.16)"/><path class="cls-15" d="M282.78,352V328.3l.19-.11c21.57-2.32,35.78-8.28,42.94-17.66C325.51,315.9,321.53,348.32,282.78,352Z" transform="translate(-170.52 -214.16)"/><path class="cls-4" d="M280.6,327.48c4.07,1.39,7.25,3.15,8.49,5.7,2.92,5.87,5.61,12.05,8,18.27a122.14,122.14,0,0,1-16.6,2.22v-26l0-.13Z" transform="translate(-170.52 -214.16)"/><path class="cls-11" d="M288.51,342.08a7.46,7.46,0,0,0-3.41,5.86c0,2.16,1.53,3.05,3.41,2a7.46,7.46,0,0,0,3.41-5.86C291.92,341.9,290.39,341,288.51,342.08Z" transform="translate(-170.52 -214.16)"/><path class="cls-16" d="M288.51,342.87a6,6,0,0,0-2.72,4.68c0,1.73,1.22,2.43,2.72,1.58a6,6,0,0,0,2.72-4.68C291.23,342.72,290,342,288.51,342.87Z" transform="translate(-170.52 -214.16)"/><path class="cls-17" d="M285.34,334.05a7.41,7.41,0,0,0-3.41,5.85c0,2.17,1.52,3.05,3.41,2a7.43,7.43,0,0,0,3.4-5.86C288.74,333.86,287.22,333,285.34,334.05Z" transform="translate(-170.52 -214.16)"/><path class="cls-14" d="M285.34,334.83a6,6,0,0,0-2.73,4.68c0,1.73,1.22,2.44,2.73,1.58a5.94,5.94,0,0,0,2.72-4.68C288.06,334.69,286.84,334,285.34,334.83Z" transform="translate(-170.52 -214.16)"/><path class="cls-4" d="M330.78,298.46c-.69,5.77-2.59,11.41-3.1,14.42-.84,5-.77,15.12-1,22.16a26.21,26.21,0,0,0,4.25-10.79l-.09-25.55,0-.26Z" transform="translate(-170.52 -214.16)"/><path class="cls-11" d="M328.78,319.44a12.38,12.38,0,0,0-1.36,5.86c0,2.16.61,3.05,1.36,2a12.38,12.38,0,0,0,1.36-5.86C330.14,319.26,329.53,318.37,328.78,319.44Z" transform="translate(-170.52 -214.16)"/><path class="cls-16" d="M328.78,320.23a9.88,9.88,0,0,0-1.08,4.68c0,1.73.48,2.43,1.08,1.58a9.88,9.88,0,0,0,1.09-4.68C329.87,320.08,329.38,319.37,328.78,320.23Z" transform="translate(-170.52 -214.16)"/><path class="cls-17" d="M329.34,309.72a12.38,12.38,0,0,0-1.36,5.86c0,2.16.61,3.05,1.36,2a12.38,12.38,0,0,0,1.36-5.86C330.7,309.54,330.09,308.65,329.34,309.72Z" transform="translate(-170.52 -214.16)"/><path class="cls-14" d="M329.34,310.51a9.88,9.88,0,0,0-1.08,4.68c0,1.73.48,2.44,1.08,1.58a9.88,9.88,0,0,0,1.09-4.68C330.43,310.36,329.94,309.66,329.34,310.51Z" transform="translate(-170.52 -214.16)"/><polygon class="cls-10" points="41.07 55.5 41.07 52.7 59.55 42 59.55 44.8 41.07 55.5"/><polygon class="cls-9" points="31.27 47.04 41.07 52.7 41.07 55.5 31.25 49.83 31.27 47.04"/><polygon class="cls-6" points="31.27 47.04 41.07 52.7 59.55 42 49.77 36.33 31.27 47.04"/><polygon class="cls-18" points="96.26 111.13 96.26 78.06 153.16 45.18 153.14 78.21 96.26 111.13"/><polygon class="cls-19" points="18.3 32.9 96.26 78.06 96.26 111.12 18.25 65.93 18.3 32.9"/><polygon class="cls-20" points="18.3 32.9 96.26 78.06 153.16 45.18 75.44 0 18.3 32.9"/><polygon class="cls-21" points="41.66 19.4 119.62 64.56 128.51 59.42 50.79 14.24 41.66 19.4"/><polygon class="cls-22" points="119.62 75.44 119.62 64.56 128.51 59.42 128.49 70.27 119.62 75.44"/></g></g></svg>