<?xml version="1.0" encoding="utf-8"?>
<!-- Generator: Adobe Illustrator 25.4.0, SVG Export Plug-In . SVG Version: 6.00 Build 0)  -->
<svg version="1.1" id="Capa_1" xmlns="http://www.w3.org/2000/svg" xmlns:xlink="http://www.w3.org/1999/xlink" x="0px" y="0px"
	 viewBox="0 0 392.7 392.7" style="enable-background:new 0 0 392.7 392.7;" xml:space="preserve">
<g>
	<path d="M62.7,126.5c21.1-15,46.8-21.5,73.2-18.3c5.5,0.7,6.4-6.1,6.8-9c0.2-1.3,0.2-2.6,0.2-3.6c0-5.4-2.9-6.6-5.4-6.9
		c-30.4-3.8-61,4-86.2,21.8C38,120,26.9,131.8,18.4,145.6C6.4,165,0,187.2,0,210c0,30.3,11.1,59.4,31.4,81.9c0.9,1,1.1,3,0.3,4
		l-6.4,8.3c-2.9,3.8-2.7,8,0,10.4c1.2,1,3.3,2.2,6.9,1.7l26.6-3.4c5.7-0.7,10-5.6,10-11.4l-3.5-28c-0.7-5.4-3.9-6.8-5.3-7.2
		c-1.4-0.4-4.9-0.8-8.2,3.5l-5.8,7.5l-1.3,0.2c-16.2-18.7-25.2-42.6-25.2-67.5c0-19.1,5.3-37.8,15.4-54.1
		C42.2,144.3,51.6,134.4,62.7,126.5z"/>
	<path d="M351.1,18.1H218.2c-10.9,0-19.8,8.9-19.8,19.8v152.4h26.7V56.2c0-3,2.4-5.4,5.4-5.4h108.2c3,0,5.4,2.4,5.4,5.4v134.1h26.7
		V37.9C370.9,27,362,18.1,351.1,18.1z"/>
	<path d="M392.7,354.8V221.8c0-10.9-8.9-19.8-19.8-19.8H119.3c-10.9,0-19.8,8.9-19.8,19.8v132.9c0,10.9,8.9,19.8,19.8,19.8h253.6
		C383.8,374.5,392.7,365.7,392.7,354.8z M380.6,288.6c0,6.9-5.6,12.5-12.4,12.5s-12.4-5.6-12.4-12.5c0-6.9,5.6-12.4,12.4-12.4
		S380.6,281.8,380.6,288.6z M137.6,347.9c-3,0-5.4-2.4-5.4-5.4V234.2c0-3,2.4-5.4,5.4-5.4h195.2c3,0,5.4,2.4,5.4,5.4v108.2
		c0,3-2.4,5.4-5.4,5.4L137.6,347.9L137.6,347.9z"/>
</g>
</svg>
